<svg width="121" height="40" viewBox="0 0 121 40" fill="none" xmlns="http://www.w3.org/2000/svg">
<g clip-path="url(#clip0_7_384)">
<path d="M40 0H0V40H40V0Z" fill="#F6F6F6"/>
<path d="M15.4857 34.4291C14.9143 34.4291 14.5471 34.1434 14.5471 33.6537V33.4905C14.5471 32.3478 16.3019 31.8581 16.3019 29.9809V8.51525H14.139C11.4048 8.51525 10.915 13.4532 8.99701 13.4532H8.30326C7.6095 13.4532 7.20141 13.0043 7.28303 12.2697L8.09921 6.71964C8.18083 5.82184 8.58892 5.45456 9.48672 5.45456H30.4626C31.3604 5.45456 31.7277 5.82184 31.8502 6.71964L32.7071 12.3105C32.8296 13.0043 32.3807 13.4532 31.6869 13.4532H30.9932C29.0751 13.4532 28.5446 8.51525 25.7696 8.51525H23.6475V29.9809C23.6475 31.8581 25.4023 32.3478 25.4023 33.4905V33.6537C25.4023 34.1434 25.035 34.4291 24.4229 34.4291H15.4857Z" fill="#111111"/>
<path d="M51.132 27.2468C50.8635 27.2468 50.6909 27.1125 50.6909 26.8824V26.8057C50.6909 26.2688 51.5155 26.0387 51.5155 25.1566V15.0699H50.4992C49.2144 15.0699 48.9842 17.3902 48.083 17.3902H47.757C47.431 17.3902 47.2392 17.1792 47.2776 16.8341L47.6611 14.2261C47.6994 13.8042 47.8912 13.6316 48.3131 13.6316H58.1697C58.5916 13.6316 58.7641 13.8042 58.8217 14.2261L59.2244 16.8532C59.2819 17.1792 59.071 17.3902 58.745 17.3902H58.419C57.5177 17.3902 57.2684 15.0699 55.9644 15.0699H54.9672V25.1566C54.9672 26.0387 55.7918 26.2688 55.7918 26.8057V26.8824C55.7918 27.1125 55.6192 27.2468 55.3316 27.2468H51.132ZM67.7386 24.2169C68.0071 23.9485 68.4673 24.0635 68.4481 24.4854C68.4098 25.5401 67.0675 27.4385 64.5554 27.4385C61.7748 27.4385 59.8188 25.5017 59.8188 22.5869C59.8188 19.7489 62.0241 17.8504 64.5362 17.8504C67.0483 17.8504 68.1989 19.2695 68.1989 20.4776C68.1989 21.0528 67.892 21.4364 67.451 21.6665L63.6349 23.8142C64.1335 24.6005 64.8814 25.0607 65.821 25.0607C66.6456 25.0607 67.3935 24.6772 67.7386 24.2169ZM64.191 18.79C63.4048 18.79 62.9062 19.6913 62.9062 20.8036C62.9062 21.5514 63.0021 22.2418 63.1939 22.8171L64.9772 21.7432C65.2841 21.5323 65.4758 21.1679 65.4758 20.7652C65.4758 20.1516 65.169 18.79 64.191 18.79ZM69.6179 27.2468C69.3494 27.2468 69.1768 27.1125 69.1768 26.8824V26.8057C69.1768 26.2496 69.9247 26.0387 69.9247 25.1566V16.393C69.9247 15.4917 69.1768 15.2424 69.1768 14.763V14.6863C69.1768 14.4754 69.3494 14.3795 69.5987 14.2453L72.4943 12.8262C73.0313 12.5578 73.3764 12.8838 73.3764 13.2289V25.1566C73.3764 26.0387 74.2202 26.2496 74.2202 26.8057V26.8824C74.2202 27.1125 74.0284 27.2468 73.76 27.2468H69.6179ZM82.9262 24.2169C83.1947 23.9485 83.6549 24.0635 83.6357 24.4854C83.5974 25.5401 82.2551 27.4385 79.743 27.4385C76.9624 27.4385 75.0064 25.5017 75.0064 22.5869C75.0064 19.7489 77.2117 17.8504 79.7238 17.8504C82.2359 17.8504 83.3865 19.2695 83.3865 20.4776C83.3865 21.0528 83.0796 21.4364 82.6386 21.6665L78.8225 23.8142C79.3211 24.6005 80.069 25.0607 81.0086 25.0607C81.8332 25.0607 82.5811 24.6772 82.9262 24.2169ZM79.3786 18.79C78.5924 18.79 78.0938 19.6913 78.0938 20.8036C78.0938 21.5514 78.1897 22.2418 78.3815 22.8171L80.1648 21.7432C80.4717 21.5323 80.6634 21.1679 80.6634 20.7652C80.6634 20.1516 80.3566 18.79 79.3786 18.79Z" fill="#F6F6F6"/>
<path d="M92.0221 23.8377C92.2817 23.5781 92.7267 23.6894 92.7082 24.0974C92.6711 25.1172 91.3731 26.953 88.9439 26.953C86.2551 26.953 84.3636 25.0802 84.3636 22.2616C84.3636 19.5171 86.4961 17.6813 88.9253 17.6813C91.3545 17.6813 92.4671 19.0535 92.4671 20.2218C92.4671 20.7781 92.1704 21.149 91.7439 21.3715L88.0538 23.4483C88.5359 24.2086 89.2591 24.6537 90.1677 24.6537C90.9651 24.6537 91.6883 24.2828 92.0221 23.8377ZM88.5915 18.59C87.8313 18.59 87.3491 19.4615 87.3491 20.537C87.3491 21.2602 87.4419 21.9278 87.6273 22.4841L89.3518 21.4456C89.6485 21.2417 89.834 20.8893 89.834 20.4999C89.834 19.9065 89.5373 18.59 88.5915 18.59ZM93.8393 26.7676C93.5797 26.7676 93.4128 26.6378 93.4128 26.4153V26.3411C93.4128 25.8034 94.136 25.5994 94.136 24.7464V16.272C94.136 15.4005 93.4128 15.1594 93.4128 14.6958V14.6217C93.4128 14.4177 93.5797 14.325 93.8208 14.1952L96.6208 12.823C97.1401 12.5634 97.4738 12.8786 97.4738 13.2124V24.7464C97.4738 25.5994 98.2897 25.8034 98.2897 26.3411V26.4153C98.2897 26.6378 98.1043 26.7676 97.8447 26.7676H93.8393ZM104.168 26.953C101.331 26.953 99.0315 24.9874 99.0315 22.2986C99.0315 19.5542 101.386 17.6813 104.038 17.6813C106.82 17.6813 109.119 19.6099 109.119 22.3357C109.119 25.0431 106.875 26.953 104.168 26.953ZM104.557 26.0444C105.429 26.0444 105.744 25.1543 105.744 23.7636C105.744 22.3172 104.984 18.59 103.519 18.59C102.629 18.59 102.314 19.4059 102.314 20.9079C102.314 22.4099 103.055 26.0444 104.557 26.0444ZM120.06 24.7464C120.115 25.5994 120.727 25.8219 120.727 26.3597V26.4338C120.727 26.6563 120.542 26.7862 120.282 26.7862H116.574C116.295 26.7862 116.129 26.6563 116.129 26.4338V26.3597C116.129 25.8219 116.852 25.5994 116.796 24.7464L116.611 21.4271C116.518 19.5913 116.166 18.9052 115.331 18.9052C114.515 18.9052 114.126 19.6284 114.126 20.7039V24.7464C114.126 25.5994 114.942 25.8219 114.942 26.3597V26.4338C114.942 26.6563 114.775 26.7862 114.497 26.7862H110.491C110.213 26.7862 110.046 26.6563 110.046 26.4338V26.3597C110.046 25.8219 110.862 25.5994 110.862 24.7464V21.0933C110.862 20.2032 109.879 20.092 109.879 19.5542V19.4986C109.879 19.2761 110.065 19.1648 110.324 19.035L112.92 17.7555C113.384 17.5144 113.625 17.8297 113.625 18.2006V19.0721C114.126 18.182 115.053 17.6813 116.277 17.6813C117.89 17.6813 119.596 18.59 119.819 21.5384L120.06 24.7464Z" fill="#F6F6F6"/>
</g>
<defs>
<clipPath id="clip0_7_384">
<rect width="120.727" height="40" fill="white"/>
</clipPath>
</defs>
</svg>
