<svg width="22" height="14" viewBox="0 0 22 14" fill="none" xmlns="http://www.w3.org/2000/svg">
<path fill-rule="evenodd" clip-rule="evenodd" d="M19.1616 7.4536C19.3686 7.3366 19.5768 7.1476 19.7868 6.889C20.001 6.619 20.1504 6.3748 20.2356 6.1552C20.3202 5.9356 20.2878 5.7682 20.1378 5.6536C19.9734 5.5186 19.7904 5.509 19.5882 5.6236C19.386 5.7388 19.1802 5.9278 18.9708 6.1924C18.7512 6.457 18.6 6.6988 18.5178 6.9184C18.4356 7.138 18.4716 7.3102 18.6264 7.435C18.7758 7.5646 18.9546 7.5706 19.1616 7.4536ZM16.6992 7.9552C16.2576 7.5136 16.0368 6.9412 16.0368 6.2374C16.0368 5.743 16.1754 5.2834 16.4526 4.8568C16.7292 4.4302 17.091 4.0858 17.5374 3.8236C17.9844 3.562 18.4644 3.4312 18.978 3.4312C19.4226 3.4312 19.8192 3.5332 20.1684 3.7378C20.5176 3.9418 20.7942 4.2214 20.9988 4.576C21.2034 4.93 21.306 5.332 21.306 5.7808C21.306 6.2998 21.1758 6.7738 20.9166 7.2028C20.6574 7.6318 20.3094 7.975 19.8726 8.2318C19.4358 8.4892 18.9558 8.617 18.432 8.617C17.7186 8.617 17.1408 8.3962 16.6992 7.9552ZM15.2286 13.9456C14.8746 13.9456 14.5902 13.8448 14.3754 13.6426C14.1612 13.441 14.0538 13.1698 14.0538 12.8308V8.3176C14.598 8.6326 15.0966 8.8648 15.5502 9.0142C16.0044 9.1636 16.4838 9.2608 16.9872 9.3058V12.8308C16.9872 13.1698 16.8804 13.441 16.6656 13.6426C16.4508 13.8448 16.164 13.9456 15.8052 13.9456H15.2286ZM14.1396 3.6592C14.2818 3.6412 14.3958 3.5758 14.4804 3.4612C14.565 3.3508 14.6028 3.2302 14.5926 3.0976C14.5824 2.9662 14.523 2.8546 14.4126 2.7652L13.6872 2.1736C13.5774 2.089 13.4526 2.05 13.3128 2.0578C13.1736 2.0656 13.0584 2.1286 12.9684 2.2486C12.8838 2.3584 12.8478 2.4778 12.8604 2.608C12.8724 2.7376 12.9336 2.8498 13.0434 2.944L13.7544 3.5428C13.869 3.6382 13.998 3.6766 14.1396 3.6592ZM16.6878 0.864402C17.3568 1.1734 17.8956 1.6372 18.3048 2.2558C18.3144 2.2708 18.3246 2.2834 18.3348 2.293L18.3642 2.323C17.7258 2.4334 17.1444 2.6764 16.6206 3.0532C16.0968 3.43 15.6792 3.8962 15.3672 4.4524C15.0552 5.0092 14.8992 5.6038 14.8992 6.2374C14.8992 6.4966 14.9232 6.7462 14.9706 6.9862C15.018 7.225 15.0864 7.4524 15.1764 7.6666C14.8866 7.597 14.6202 7.51 14.3754 7.405C14.1312 7.3 13.8942 7.183 13.6644 7.0534C12.981 6.6538 12.4596 6.154 12.1002 5.5528C11.7414 4.9516 11.5614 4.2892 11.5614 3.5662C11.5614 2.947 11.6916 2.4004 11.9508 1.9264C12.2106 1.4524 12.5742 1.081 13.0434 0.811602C13.5126 0.541602 14.0562 0.404802 14.6748 0.400002C15.3486 0.400002 16.0194 0.554802 16.6878 0.864402ZM9.0846 2.944C9.1944 2.8498 9.2538 2.7376 9.264 2.608C9.2742 2.4778 9.2364 2.3584 9.1518 2.2486C9.0618 2.1286 8.9472 2.0656 8.8074 2.0578C8.6676 2.05 8.5434 2.089 8.4336 2.1736L7.7076 2.7652C7.6026 2.8546 7.5438 2.9662 7.5318 3.0976C7.5192 3.2302 7.5552 3.3508 7.6398 3.4612C7.725 3.5758 7.8384 3.6412 7.9806 3.6592C8.1228 3.6766 8.2512 3.6382 8.3658 3.5428L9.0846 2.944ZM5.4624 13.6426C5.2476 13.441 5.1402 13.1698 5.1402 12.8308V9.3058C5.6394 9.2608 6.1158 9.1636 6.57 9.0142C7.0242 8.8648 7.5228 8.6326 8.0664 8.3176V12.8308C8.0664 13.1698 7.95961 13.441 7.7448 13.6426C7.53 13.8448 7.2462 13.9456 6.8916 13.9456H6.3156C5.96161 13.9456 5.6766 13.8448 5.4624 13.6426ZM9.07681 0.818802C9.54601 1.0888 9.9114 1.459 10.1736 1.9306C10.4352 2.4016 10.566 2.947 10.566 3.5662C10.566 4.2892 10.3818 4.9474 10.0122 5.5414C9.6432 6.1354 9.1242 6.6394 8.4558 7.0534C8.23621 7.1926 8.00161 7.3126 7.752 7.4128C7.503 7.5124 7.236 7.597 6.9516 7.6666C7.03681 7.4524 7.1022 7.225 7.1496 6.9862C7.19761 6.7462 7.221 6.4966 7.221 6.2374C7.221 5.6038 7.065 5.0092 6.753 4.4524C6.4416 3.8962 6.02341 3.43 5.4996 3.0532C4.9758 2.6764 4.3974 2.4334 3.7632 2.323C3.7686 2.3134 3.777 2.3032 3.7896 2.293C3.8022 2.2834 3.8112 2.2708 3.816 2.2558C4.2246 1.6372 4.7634 1.1734 5.4324 0.864402C6.1008 0.554802 6.7722 0.400002 7.44541 0.400002C8.064 0.410202 8.6082 0.549402 9.07681 0.818802ZM3.5874 6.9184C3.5052 6.6988 3.354 6.457 3.135 6.1924C2.9202 5.9278 2.712 5.7388 2.5098 5.6236C2.3076 5.509 2.127 5.5186 1.9674 5.6536C1.8126 5.7682 1.779 5.9356 1.866 6.1552C1.9536 6.3748 2.1042 6.619 2.319 6.889C2.5236 7.1476 2.7306 7.3366 2.94 7.4536C3.1494 7.5706 3.3294 7.5646 3.4788 7.435C3.6336 7.3102 3.6696 7.138 3.5874 6.9184ZM2.229 8.2318C1.7952 7.975 1.4484 7.6318 1.1886 7.2028C0.929405 6.7738 0.799805 6.2998 0.799805 5.7808C0.799805 5.332 0.901805 4.93 1.1064 4.576C1.3116 4.2214 1.5882 3.9418 1.9374 3.7378C2.2866 3.5332 2.6808 3.4312 3.12 3.4312C3.6384 3.4312 4.1214 3.562 4.5678 3.8236C5.0142 4.0858 5.376 4.4302 5.6532 4.8568C5.9298 5.2834 6.0684 5.743 6.0684 6.2374C6.0684 6.9412 5.8476 7.5136 5.406 7.9552C4.9644 8.3962 4.3872 8.617 3.6738 8.617C3.1446 8.617 2.6634 8.4892 2.229 8.2318Z" fill="#333333"/>
</svg>
