<svg width="8" height="22" viewBox="0 0 8 22" fill="none" xmlns="http://www.w3.org/2000/svg">
<path fill-rule="evenodd" clip-rule="evenodd" d="M7.42138 20.568H6.69655C6.5468 20.568 6.42541 20.4466 6.42541 20.2974V13.5186C5.81599 14.1997 4.98668 14.6205 4.07379 14.6205C3.1609 14.6205 2.33159 14.1997 1.72167 13.5186V20.2974C1.72167 20.4466 1.60079 20.568 1.45104 20.568H0.726203C0.57248 20.568 0.429701 20.6715 0.404329 20.8227C0.371993 21.0148 0.521239 21.1829 0.707299 21.1829H1.72167H6.42541H7.43979C7.62635 21.1829 7.77559 21.0148 7.74276 20.8227C7.71789 20.6715 7.57511 20.568 7.42138 20.568Z" fill="#333333"/>
<path fill-rule="evenodd" clip-rule="evenodd" d="M4.07369 5.54913C3.74287 5.54913 3.47422 5.28048 3.47422 4.94916C3.47422 4.61833 3.74287 4.34968 4.07369 4.34968C4.40502 4.34968 4.67366 4.61833 4.67366 4.94916C4.67366 5.28048 4.40502 5.54913 4.07369 5.54913ZM4.07369 7.98582C3.74287 7.98582 3.47422 7.71718 3.47422 7.38585C3.47422 7.05502 3.74287 6.78638 4.07369 6.78638C4.40502 6.78638 4.67366 7.05502 4.67366 7.38585C4.67366 7.71718 4.40502 7.98582 4.07369 7.98582ZM4.07369 10.4225C3.74287 10.4225 3.47422 10.1538 3.47422 9.82252C3.47422 9.49169 3.74287 9.22305 4.07369 9.22305C4.40502 9.22305 4.67366 9.49169 4.67366 9.82252C4.67366 10.1538 4.40502 10.4225 4.07369 10.4225ZM7.44018 0.80011H6.4258H1.72156H0.72609C0.572864 0.80011 0.430086 0.903587 0.404216 1.05482C0.372377 1.24685 0.521126 1.415 0.707186 1.415H1.45143C1.60067 1.415 1.72156 1.53639 1.72156 1.68564V12.3687C2.19865 13.3268 3.07274 13.9721 4.07368 13.9721C5.07462 13.9721 5.94921 13.3268 6.4258 12.3687V1.68564C6.4258 1.53639 6.54719 1.415 6.69643 1.415H7.42127C7.5745 1.415 7.71777 1.31103 7.74314 1.15979C7.77548 0.96826 7.62673 0.80011 7.44018 0.80011Z" fill="#333333"/>
</svg>
