<svg width="19" height="18" viewBox="0 0 19 18" fill="none" xmlns="http://www.w3.org/2000/svg">
<path fill-rule="evenodd" clip-rule="evenodd" d="M12.2264 17.9862C10.3088 17.9862 8.74875 16.4262 8.74875 14.5086V3.61797C8.74875 2.03097 7.45815 0.73977 5.87115 0.73977C4.28475 0.73977 2.99355 2.03097 2.99355 3.61797V15.2202H2.39355V3.61797C2.39355 1.69977 3.95355 0.139771 5.87115 0.139771C7.78875 0.139771 9.34875 1.69977 9.34875 3.61797V14.5086C9.34875 16.0956 10.6394 17.3862 12.2264 17.3862C13.8134 17.3862 15.1046 16.0956 15.1046 14.5086V5.22777H15.7046V14.5086C15.7046 16.4262 14.144 17.9862 12.2264 17.9862Z" fill="#333333"/>
<path fill-rule="evenodd" clip-rule="evenodd" d="M4.1874 15.6113H1.2C0.537 15.6113 0 15.0737 0 14.4113V10.9241C0 10.2611 0.537 9.72351 1.2 9.72351H4.1874C4.8498 9.72351 5.3874 10.2611 5.3874 10.9241V14.4113C5.3874 15.0737 4.8498 15.6113 4.1874 15.6113Z" fill="#333333"/>
<path fill-rule="evenodd" clip-rule="evenodd" d="M16.8983 8.41955H13.9109C13.2479 8.41955 12.7109 7.88195 12.7109 7.21955V3.73235C12.7109 3.06935 13.2479 2.53235 13.9109 2.53235H16.8983C17.5607 2.53235 18.0983 3.06935 18.0983 3.73235V7.21955C18.0983 7.88195 17.5607 8.41955 16.8983 8.41955Z" fill="#333333"/>
<path fill-rule="evenodd" clip-rule="evenodd" d="M1.79443 17.3401H2.39443V15.5581H1.79443V17.3401Z" fill="#333333"/>
<path fill-rule="evenodd" clip-rule="evenodd" d="M2.99316 17.3401H3.59316V15.5581H2.99316V17.3401Z" fill="#333333"/>
<path fill-rule="evenodd" clip-rule="evenodd" d="M14.2245 2.61H16.5843V0.9C16.5843 0.735 16.4493 0.6 16.2843 0.6H14.5245C14.3595 0.6 14.2245 0.735 14.2245 0.9V2.61ZM17.1843 3.21H13.6245V0.9C13.6245 0.4038 14.0283 0 14.5245 0H16.2843C16.7805 0 17.1843 0.4038 17.1843 0.9V3.21Z" fill="#333333"/>
</svg>
