<svg width="18" height="18" viewBox="0 0 18 18" fill="none" xmlns="http://www.w3.org/2000/svg">
<path fill-rule="evenodd" clip-rule="evenodd" d="M5.95717 3.08577C6.09799 2.96922 6.23882 2.85754 6.38935 2.75119V14.3808C6.23882 14.274 6.09799 14.1628 5.95717 14.0414C4.40325 12.7298 3.41748 10.7636 3.41748 8.56819C3.41748 6.37377 4.40325 4.4066 5.95717 3.08577Z" fill="#333333"/>
<path fill-rule="evenodd" clip-rule="evenodd" d="M17.7767 8.56817C17.7767 10.9962 16.5724 13.1425 14.7222 14.4391C14.5863 14.5362 14.4406 14.6333 14.2949 14.7207V2.41077C14.4406 2.49817 14.5863 2.59044 14.7222 2.69241C16.5724 3.98897 17.7767 6.13532 17.7767 8.56817Z" fill="#333333"/>
<path fill-rule="evenodd" clip-rule="evenodd" d="M14.2954 16.7067C14.2954 17.1535 13.9263 17.5128 13.4747 17.5128H7.2105C6.75889 17.5128 6.38984 17.1535 6.38984 16.7067V1.23115C6.38984 0.789254 6.75889 0.425054 7.2105 0.425054H8.03117C8.09915 0.425054 8.15742 0.483326 8.15742 0.550824V0.638232C8.15742 0.861608 8.34195 1.04128 8.56533 1.04128H12.1199C12.3433 1.04128 12.5278 0.861608 12.5278 0.638232V0.550824C12.5278 0.483326 12.5861 0.425054 12.6541 0.425054H13.4747C13.9263 0.425054 14.2954 0.789254 14.2954 1.23115V16.7067ZM10.0075 0.550844H10.9544C10.9981 0.550844 11.0272 0.57998 11.0272 0.62417C11.0272 0.662532 10.9981 0.692154 10.9544 0.692154H10.0075C9.96861 0.692154 9.93462 0.662532 9.93462 0.62417C9.93462 0.57998 9.96861 0.550844 10.0075 0.550844ZM11.236 0.550844H11.3865C11.4254 0.550844 11.4594 0.57998 11.4594 0.62417C11.4594 0.662532 11.4254 0.692154 11.3865 0.692154H11.236C11.1972 0.692154 11.1632 0.662532 11.1632 0.62417C11.1632 0.57998 11.1972 0.550844 11.236 0.550844ZM13.4406 0.0171509H7.24436C6.53538 0.0171509 5.95752 0.579961 5.95752 1.27923V16.6582C5.95752 17.3579 6.53538 17.9261 7.24436 17.9261H13.4406C14.1496 17.9261 14.7226 17.3579 14.7226 16.6582V1.27923C14.7226 0.579961 14.1496 0.0171509 13.4406 0.0171509Z" fill="#333333"/>
<path fill-rule="evenodd" clip-rule="evenodd" d="M11.0641 5.53986L8.1709 8.97013H10.2439V11.5948L13.023 8.81523H11.0641V5.53986Z" fill="#333333"/>
<path fill-rule="evenodd" clip-rule="evenodd" d="M3.70794 8.81006H0.842898C0.708386 8.81006 0.600098 8.70129 0.600098 8.56726C0.600098 8.43324 0.708386 8.32446 0.842898 8.32446H3.70794C3.84196 8.32446 3.95074 8.43324 3.95074 8.56726C3.95074 8.70129 3.84196 8.81006 3.70794 8.81006Z" fill="#333333"/>
</svg>
