<svg width="14" height="21" viewBox="0 0 14 21" fill="none" xmlns="http://www.w3.org/2000/svg">
<path fill-rule="evenodd" clip-rule="evenodd" d="M3.16374 2.31152V19.1537C3.16374 19.5683 3.46172 19.9181 3.85471 20.0001V20.0174H1.2636C0.788568 20.0174 0.399902 19.6287 0.399902 19.1537V2.31152C0.399902 1.83648 0.788568 1.44781 1.2636 1.44781H3.85471V1.46509C3.46172 1.54714 3.16374 1.89694 3.16374 2.31152Z" fill="#333333"/>
<path fill-rule="evenodd" clip-rule="evenodd" d="M6.61931 2.31152V19.1537C6.61931 19.5683 6.91686 19.9181 7.31027 20.0001V20.0174H4.71917C4.24413 20.0174 3.85547 19.6287 3.85547 19.1537V2.31152C3.85547 1.83648 4.24413 1.44781 4.71917 1.44781H7.31027V1.46509C6.91686 1.54714 6.61931 1.89694 6.61931 2.31152Z" fill="#333333"/>
<path fill-rule="evenodd" clip-rule="evenodd" d="M11.6286 19.7987C11.6286 20.3623 11.1004 20.7755 10.5554 20.6386L8.17376 20.0418C7.69872 20.0418 7.31006 19.6523 7.31006 19.176V2.28932C7.31006 1.81299 7.69872 1.42346 8.17376 1.42346L10.5554 0.826215C11.1004 0.68975 11.6286 1.10303 11.6286 1.6666V19.7987Z" fill="#333333"/>
<path fill-rule="evenodd" clip-rule="evenodd" d="M13.9598 2.0956V19.3696C13.9598 19.8464 13.5729 20.2333 13.0961 20.2333H12.2324V18.5059H12.9234V2.9593H12.2324V1.2319H13.0961C13.5729 1.2319 13.9598 1.61884 13.9598 2.0956Z" fill="#333333"/>
</svg>
