<svg width="20" height="16" viewBox="0 0 20 16" fill="none" xmlns="http://www.w3.org/2000/svg">
<path fill-rule="evenodd" clip-rule="evenodd" d="M4.28649 14.5246H19.2249C19.3372 14.5246 19.4284 14.6158 19.4284 14.7281C19.4284 14.8404 19.3372 14.9316 19.2249 14.9316H4.28649C4.17416 14.9316 4.08301 14.8404 4.08301 14.7281C4.08301 14.6158 4.17416 14.5246 4.28649 14.5246Z" fill="#333333"/>
<path fill-rule="evenodd" clip-rule="evenodd" d="M3.54266 14.3813C3.52517 14.3813 3.50737 14.3783 3.48987 14.3721C3.41039 14.343 3.36957 14.2549 3.39842 14.1754L5.31966 8.89414C5.34881 8.81465 5.43689 8.77383 5.51669 8.80268C5.59587 8.83153 5.637 8.91992 5.60784 8.99941L3.68691 14.2804C3.6642 14.343 3.60527 14.3813 3.54266 14.3813Z" fill="#333333"/>
<path fill-rule="evenodd" clip-rule="evenodd" d="M8.22612 13.7039C8.17333 13.7039 8.12177 13.6765 8.09323 13.6274L0.420546 0.43042C0.378193 0.357376 0.403053 0.263463 0.476404 0.220803C0.548834 0.178449 0.643361 0.202695 0.686328 0.276353L8.35901 13.4734C8.40136 13.5464 8.3765 13.6403 8.30315 13.683C8.27891 13.6971 8.25251 13.7039 8.22612 13.7039Z" fill="#333333"/>
<path fill-rule="evenodd" clip-rule="evenodd" d="M3.77584 15.0512C3.66229 15.0757 3.53645 15.0328 3.45052 14.9499C3.36765 14.864 3.32469 14.7381 3.34924 14.6246C3.37072 14.5141 3.45666 14.419 3.55794 14.4067C3.54873 14.511 3.56714 14.5755 3.58893 14.6246C3.61318 14.6737 3.63773 14.7044 3.66842 14.732C3.69604 14.7627 3.72674 14.7872 3.77584 14.8118C3.82495 14.8333 3.8894 14.8517 3.99374 14.8425C3.98147 14.9468 3.88633 15.0297 3.77584 15.0512ZM3.77592 14.0108C3.43833 14.0108 3.16211 14.287 3.16211 14.6246C3.16211 14.9622 3.43833 15.2384 3.77592 15.2384C4.11383 15.2384 4.38974 14.9622 4.38974 14.6246C4.38974 14.287 4.11383 14.0108 3.77592 14.0108Z" fill="#333333"/>
</svg>
