<svg width="21" height="18" viewBox="0 0 21 18" fill="none" xmlns="http://www.w3.org/2000/svg">
<path fill-rule="evenodd" clip-rule="evenodd" d="M1.19027 12.2426H19.2494V1.58967H1.19027V12.2426ZM10.2179 12.8927V12.8719C10.2179 12.8469 10.222 12.8219 10.2345 12.7969C10.2429 12.7719 10.2595 12.751 10.272 12.7343C10.2929 12.7135 10.3137 12.6927 10.3429 12.6802C10.3721 12.6635 10.3971 12.6552 10.4221 12.6552C10.4262 12.6593 10.4262 12.6677 10.4262 12.676C10.4262 12.701 10.4221 12.726 10.4096 12.7552C10.4012 12.7802 10.3846 12.801 10.3721 12.8177C10.3554 12.8385 10.3304 12.8594 10.3054 12.8719C10.2804 12.8844 10.2554 12.8927 10.2304 12.8927H10.2179ZM10.2263 12.9511C10.2388 12.9511 10.2555 12.9469 10.2763 12.9386C10.293 12.9302 10.3138 12.9219 10.3347 12.9136C10.3555 12.9052 10.3805 12.9052 10.4055 12.9052C10.418 12.9052 10.4347 12.9052 10.4555 12.9094C10.4805 12.9136 10.5055 12.9219 10.5347 12.9344C10.5639 12.9469 10.5889 12.9719 10.6097 13.0053C10.6097 13.0053 10.6014 13.0094 10.5931 13.0178C10.5806 13.0261 10.5681 13.0386 10.5514 13.0553C10.5389 13.0719 10.5264 13.0928 10.5139 13.1136C10.5055 13.1386 10.5014 13.1678 10.5014 13.2012C10.5014 13.2387 10.5055 13.272 10.518 13.297C10.5347 13.322 10.5472 13.3429 10.5681 13.3595C10.5847 13.3762 10.6014 13.3887 10.6139 13.397C10.6264 13.4054 10.6347 13.4054 10.6389 13.4095C10.6347 13.4095 10.6306 13.4262 10.6181 13.4554C10.6097 13.4846 10.5931 13.5179 10.5681 13.5512C10.5431 13.5846 10.5222 13.6138 10.4972 13.6388C10.4722 13.6679 10.443 13.6804 10.4055 13.6804C10.3847 13.6804 10.3638 13.6763 10.3513 13.6679C10.3347 13.6638 10.318 13.6554 10.3055 13.6471C10.2888 13.6429 10.268 13.6388 10.2388 13.6388C10.2138 13.6388 10.193 13.6429 10.1721 13.6471C10.1554 13.6554 10.1388 13.6638 10.1263 13.6679C10.1096 13.6763 10.0888 13.6804 10.0679 13.6804C10.0387 13.6804 10.0096 13.6679 9.98457 13.6429C9.95956 13.6179 9.93455 13.5846 9.90955 13.5512C9.88037 13.5096 9.85537 13.4554 9.83453 13.397C9.81369 13.3345 9.80535 13.272 9.80535 13.2095C9.80535 13.1428 9.81786 13.0886 9.84286 13.0428C9.86787 12.9969 9.89704 12.9636 9.93872 12.9427C9.97623 12.9177 10.0179 12.9052 10.0596 12.9052C10.0846 12.9052 10.1054 12.9094 10.1263 12.9177C10.1429 12.9261 10.1638 12.9302 10.1805 12.9386C10.1971 12.9469 10.2138 12.9511 10.2263 12.9511ZM19.2496 0.664398H1.19049C0.66535 0.664398 0.240234 1.07701 0.240234 1.58965V13.5846C0.240234 14.043 0.615336 14.4181 1.07379 14.4181H8.94677L8.70504 15.8727C8.60501 16.477 8.08404 16.9188 7.47137 16.9188H6.86287V17.3356H13.5314V16.9188H12.9229C12.3102 16.9188 11.7892 16.477 11.6892 15.8727L11.4475 14.4181H19.3663C19.8247 14.4181 20.1998 14.043 20.1998 13.5846V1.58965C20.1998 1.07701 19.7747 0.664398 19.2496 0.664398Z" fill="#333333"/>
</svg>
