<svg width="16" height="19" viewBox="0 0 16 19" fill="none" xmlns="http://www.w3.org/2000/svg">
<path fill-rule="evenodd" clip-rule="evenodd" d="M4.21744 3.36889H5.04468C5.07914 3.36889 5.10978 3.3957 5.10978 3.43016C5.10978 3.46463 5.07914 3.49144 5.04468 3.49144H4.21744C4.17914 3.49144 4.15233 3.46463 4.15233 3.43016C4.15233 3.3957 4.17914 3.36889 4.21744 3.36889ZM5.29001 3.36889H5.42405C5.45852 3.36889 5.48533 3.3957 5.48533 3.43016C5.48533 3.46463 5.45852 3.49144 5.42405 3.49144H5.29001C5.25554 3.49144 5.2249 3.46463 5.2249 3.43016C5.2249 3.3957 5.25554 3.36889 5.29001 3.36889ZM6.23956 18.2399H1.7702C1.37573 18.2399 1.05403 17.922 1.05403 17.5314V3.9663C1.05403 3.57566 1.37573 3.25779 1.7702 3.25779H2.4902C2.55148 3.25779 2.60126 3.30758 2.60126 3.36885V3.44545C2.60126 3.64077 2.76212 3.79779 2.95743 3.79779H5.84892V2.89779H1.80084C1.18041 2.89779 0.678711 3.39566 0.678711 4.00843V17.4893C0.678711 18.102 1.18041 18.5999 1.41786 18.5999H6.75658C6.78722 18.5999 6.47318 18.462 6.23956 18.2399Z" fill="#333333"/>
<path fill-rule="evenodd" clip-rule="evenodd" d="M14.6085 17.376C14.6085 17.8241 14.2404 18.1871 13.7866 18.1871H7.48736C7.03315 18.1871 6.6651 17.8237 6.6651 17.376V1.82437C6.6651 1.37629 7.03315 1.01322 7.48736 1.01322H8.31344C8.38391 1.01322 8.44098 1.06952 8.44098 1.13922V1.22654C8.44098 1.44982 8.62634 1.63288 8.85306 1.63288H12.4209C12.6472 1.63288 12.8326 1.44982 12.8326 1.22654V1.13922C12.8326 1.06952 12.89 1.01322 12.9605 1.01322H13.7866C14.2404 1.01322 14.6085 1.37629 14.6085 1.82437V17.376ZM10.2997 1.1381H11.2537C11.294 1.1381 11.3269 1.17027 11.3269 1.2101C11.3269 1.24955 11.294 1.2821 11.2537 1.2821H10.2997C10.2595 1.2821 10.2266 1.24955 10.2266 1.2101C10.2266 1.17027 10.2595 1.1381 10.2997 1.1381ZM11.5342 1.1381H11.6866C11.7268 1.1381 11.7597 1.17027 11.7597 1.2101C11.7597 1.24955 11.7268 1.2821 11.6866 1.2821H11.5342C11.494 1.2821 11.461 1.24955 11.461 1.2101C11.461 1.17027 11.494 1.1381 11.5342 1.1381ZM13.7526 0.6H12.421H8.85315H7.52153C6.80957 0.6 6.23242 1.16911 6.23242 1.87149V17.3281C6.23242 18.0305 6.80957 18.6 7.52153 18.6H13.7526C14.4642 18.6 15.0409 18.0305 15.0409 17.3281V1.87149C15.0409 1.16911 14.4642 0.6 13.7526 0.6Z" fill="#333333"/>
</svg>
