<svg width="16" height="18" viewBox="0 0 16 18" fill="none" xmlns="http://www.w3.org/2000/svg">
<path fill-rule="evenodd" clip-rule="evenodd" d="M14.4997 17.2341H5.69115C5.47936 17.2341 5.30817 17.0625 5.30817 16.8511V3.06384C5.30817 2.85243 5.47936 2.68086 5.69115 2.68086H14.4997C14.7111 2.68086 14.8826 2.85243 14.8826 3.06384V16.8511C14.8826 17.0625 14.7111 17.2341 14.4997 17.2341ZM4.54199 2.68084V17.234C4.54199 17.6568 4.88476 18 5.30795 18H14.8824C15.3052 18 15.6484 17.6568 15.6484 17.234V2.68084C15.6484 2.25804 15.3052 1.91489 14.8824 1.91489H5.30795C4.88476 1.91489 4.54199 2.25804 4.54199 2.68084Z" fill="#333333"/>
<path fill-rule="evenodd" clip-rule="evenodd" d="M12.3587 0H1.05998C0.631411 0 0.280762 0.344681 0.280762 0.765957V17.234C0.280762 17.6553 0.631411 18 1.05998 18H4.37167C4.05531 17.7702 3.98206 17.6553 3.98206 17.234H1.05998V1.14894C1.05998 0.938298 1.23531 0.765957 1.44959 0.765957H11.9691C12.1834 0.765957 12.3587 0.938298 12.3587 1.14894V1.34043H13.1379V0.765957C13.1379 0.344681 12.7873 0 12.3587 0Z" fill="#333333"/>
</svg>
