<svg width="10" height="16" viewBox="0 0 10 16" fill="none" xmlns="http://www.w3.org/2000/svg">
<path fill-rule="evenodd" clip-rule="evenodd" d="M8.57332 11.1144C8.57332 11.7563 8.04823 12.2813 7.40634 12.2813H2.27821C1.63669 12.2813 1.11161 11.7563 1.11161 11.1144V4.56501C1.11161 3.92312 1.63669 3.39804 2.27821 3.39804H7.40634C8.04823 3.39804 8.57332 3.92312 8.57332 4.56501V11.1144ZM8.89567 5.24117V4.62728C8.89567 4.15047 8.68527 3.72082 8.35253 3.42604C7.79723 2.93412 7.43501 2.26201 7.43501 1.51989V0.939907C7.43501 0.533106 7.10191 0.200001 6.69511 0.200001H3.00036C2.59356 0.200001 2.26083 0.533106 2.26083 0.939907V1.51989C2.26083 2.26201 1.89861 2.93412 1.34294 3.42604C1.01057 3.72082 0.799805 4.15047 0.799805 4.62728V11.0521C0.799805 11.5289 1.01057 11.9585 1.34294 12.2533C1.89861 12.7456 2.26083 13.4181 2.26083 14.1602V14.7391C2.26083 15.1463 2.59356 15.479 3.00036 15.479H6.69511C7.10191 15.479 7.43501 15.1463 7.43501 14.7391V14.1602C7.43501 13.4181 7.79723 12.7456 8.35253 12.2533C8.68527 11.9585 8.89567 11.5289 8.89567 11.0521V7.06219H8.89309C9.09649 7.06219 9.26157 6.89748 9.26157 6.69371V5.60965C9.26157 5.40625 9.09649 5.24117 8.89309 5.24117H8.89567Z" fill="#333333"/>
</svg>
