<svg width="230" height="110" viewBox="0 0 230 110" fill="none" xmlns="http://www.w3.org/2000/svg">
<g clip-path="url(#clip0_7_23)">
<path d="M110 0H0V110H110V0Z" fill="#111111"/>
<path d="M42.5857 94.6799C41.0145 94.6799 40.0045 93.8944 40.0045 92.5477V92.0988C40.0045 88.9565 44.8302 87.6097 44.8302 82.4474V23.4169H38.8822C31.3631 23.4169 30.0164 36.9962 24.7419 36.9962H22.834C20.9262 36.9962 19.8039 35.7617 20.0284 33.7416L22.2729 18.479C22.4973 16.01 23.6196 15 26.0886 15H83.7723C86.2413 15 87.2513 16.01 87.588 18.479L89.9447 33.8538C90.2814 35.7617 89.0469 36.9962 87.1391 36.9962H85.2313C79.9567 36.9962 78.4978 23.4169 70.8664 23.4169H65.0307V82.4474C65.0307 87.6097 69.8564 88.9565 69.8564 92.0988V92.5477C69.8564 93.8944 68.8464 94.6799 67.163 94.6799H42.5857V94.6799Z" fill="#F6F6F6"/>
<path d="M140.613 49.9287C139.875 49.9287 139.4 49.5595 139.4 48.9267V48.7158C139.4 47.2392 141.668 46.6064 141.668 44.1806V16.4421H138.873C135.34 16.4421 134.707 22.823 132.228 22.823H131.332C130.435 22.823 129.908 22.2429 130.013 21.2937L131.068 14.1218C131.174 12.9616 131.701 12.487 132.861 12.487H159.967C161.127 12.487 161.601 12.9616 161.76 14.1218L162.867 21.3464C163.025 22.2429 162.445 22.823 161.549 22.823H160.652C158.174 22.823 157.488 16.4421 153.902 16.4421H151.16V44.1806C151.16 46.6064 153.428 47.2392 153.428 48.7158V48.9267C153.428 49.5595 152.953 49.9287 152.162 49.9287H140.613V49.9287ZM186.281 41.5966C187.02 40.8583 188.285 41.1747 188.232 42.3349C188.127 45.2353 184.436 50.456 177.527 50.456C169.881 50.456 164.502 45.1298 164.502 37.1141C164.502 29.3094 170.566 24.0886 177.475 24.0886C184.383 24.0886 187.547 27.991 187.547 31.3133C187.547 32.8953 186.703 33.95 185.49 34.5829L174.996 40.4891C176.367 42.6513 178.424 43.9169 181.008 43.9169C183.275 43.9169 185.332 42.8622 186.281 41.5966V41.5966ZM176.525 26.6727C174.363 26.6727 172.992 29.1512 172.992 32.2098C172.992 34.2664 173.256 36.1649 173.783 37.7469L178.688 34.7938C179.531 34.2137 180.059 33.2118 180.059 32.1043C180.059 30.4168 179.215 26.6727 176.525 26.6727V26.6727ZM191.449 49.9287C190.711 49.9287 190.236 49.5595 190.236 48.9267V48.7158C190.236 47.1865 192.293 46.6064 192.293 44.1806V20.0808C192.293 17.6023 190.236 16.9167 190.236 15.5984V15.3874C190.236 14.8073 190.711 14.5437 191.397 14.1745L199.36 10.2721C200.836 9.53386 201.785 10.4304 201.785 11.3796V44.1806C201.785 46.6064 204.106 47.1865 204.106 48.7158V48.9267C204.106 49.5595 203.578 49.9287 202.84 49.9287H191.449V49.9287ZM228.047 41.5966C228.786 40.8583 230.051 41.1747 229.998 42.3349C229.893 45.2353 226.201 50.456 219.293 50.456C211.647 50.456 206.268 45.1298 206.268 37.1141C206.268 29.3094 212.332 24.0886 219.241 24.0886C226.149 24.0886 229.313 27.991 229.313 31.3133C229.313 32.8953 228.469 33.95 227.256 34.5829L216.762 40.4891C218.133 42.6513 220.19 43.9169 222.774 43.9169C225.041 43.9169 227.098 42.8622 228.047 41.5966V41.5966ZM218.291 26.6727C216.129 26.6727 214.758 29.1512 214.758 32.2098C214.758 34.2664 215.022 36.1649 215.549 37.7469L220.453 34.7938C221.297 34.2137 221.825 33.2118 221.825 32.1043C221.825 30.4168 220.981 26.6727 218.291 26.6727V26.6727Z" fill="#111111"/>
<path d="M151.061 90.5538C151.775 89.8399 152.998 90.1459 152.947 91.2678C152.845 94.0725 149.276 99.1209 142.596 99.1209C135.201 99.1209 130 93.9705 130 86.2193C130 78.6721 135.864 73.6237 142.545 73.6237C149.225 73.6237 152.285 77.3973 152.285 80.6099C152.285 82.1398 151.469 83.1597 150.296 83.7716L140.148 89.483C141.474 91.5737 143.463 92.7976 145.961 92.7976C148.154 92.7976 150.143 91.7777 151.061 90.5538V90.5538ZM141.627 76.1224C139.536 76.1224 138.21 78.5192 138.21 81.4768C138.21 83.4656 138.465 85.3014 138.975 86.8312L143.717 83.9756C144.533 83.4146 145.043 82.4457 145.043 81.3748C145.043 79.743 144.227 76.1224 141.627 76.1224V76.1224ZM156.058 98.6109C155.344 98.6109 154.885 98.254 154.885 97.6421V97.4381C154.885 95.9592 156.874 95.3983 156.874 93.0526V69.7481C156.874 67.3514 154.885 66.6885 154.885 65.4136V65.2096C154.885 64.6487 155.344 64.3937 156.007 64.0368L163.707 60.2632C165.135 59.5492 166.053 60.4162 166.053 61.3341V93.0526C166.053 95.3983 168.297 95.9592 168.297 97.4381V97.6421C168.297 98.254 167.787 98.6109 167.073 98.6109H156.058V98.6109ZM184.462 99.1209C176.66 99.1209 170.337 93.7155 170.337 86.3213C170.337 78.7741 176.813 73.6237 184.105 73.6237C191.754 73.6237 198.078 78.9271 198.078 86.4233C198.078 93.8685 191.907 99.1209 184.462 99.1209V99.1209ZM185.533 96.6222C187.93 96.6222 188.797 94.1744 188.797 90.3499C188.797 86.3723 186.706 76.1224 182.677 76.1224C180.229 76.1224 179.363 78.3662 179.363 82.4967C179.363 86.6273 181.402 96.6222 185.533 96.6222ZM228.164 93.0526C228.317 95.3983 230 96.0102 230 97.4891V97.693C230 98.305 229.49 98.6619 228.776 98.6619H218.577C217.812 98.6619 217.353 98.305 217.353 97.693V97.4891C217.353 96.0102 219.342 95.3983 219.189 93.0526L218.679 83.9246C218.424 78.8761 217.455 76.9893 215.161 76.9893C212.917 76.9893 211.846 78.9781 211.846 81.9358V93.0526C211.846 95.3983 214.09 96.0102 214.09 97.4891V97.693C214.09 98.305 213.631 98.6619 212.866 98.6619H201.851C201.086 98.6619 200.627 98.305 200.627 97.693V97.4891C200.627 96.0102 202.871 95.3983 202.871 93.0526V83.0067C202.871 80.5589 200.168 80.253 200.168 78.7741V78.6211C200.168 78.0092 200.678 77.7032 201.392 77.3463L208.531 73.8277C209.806 73.1647 210.469 74.0317 210.469 75.0515V77.4483C211.846 75.0005 214.396 73.6237 217.761 73.6237C222.198 73.6237 226.889 76.1224 227.501 84.2305L228.164 93.0526Z" fill="#111111"/>
</g>
<defs>
<clipPath id="clip0_7_23">
<rect width="230" height="110" fill="white"/>
</clipPath>
</defs>
</svg>
